<?xml version="1.0" encoding="iso-8859-1"?>
<!-- Uploaded to: SVG Repo, www.svgrepo.com, Generator: SVG Repo Mixer Tools -->
<svg height="800px" width="800px" version="1.1" id="Layer_1" xmlns="http://www.w3.org/2000/svg" xmlns:xlink="http://www.w3.org/1999/xlink" 
	 viewBox="0 0 512 512" xml:space="preserve">
<path style="fill:#D21E1E;" d="M467.002,174.151c-9.31-34.83-30.395-60.822-54.776-74.3v0.578c0,23.368-18.43,42.374-41.796,42.374
	h-0.582c-23.366,0-42.956-19.007-42.956-42.374v-10.7c-24.381,7.168-44.368,23.573-58.898,45.166
	c-3.211,4.775-8.204,7.156-13.378,7.156c-4.951,0-10.156-2.18-13.528-6.532c-15.524-20.036-34.358-36.732-58.739-44.518v9.429
	c0,23.368-18.43,42.374-41.796,42.374h-0.582c-23.213,0-42.118-18.328-42.364-41.484c-22.777,13.727-43.381,38.001-52.463,72.832
	H467.002z"/>
<path d="M498.189,187.289c-3.971-29.358-15.771-56.54-33.576-78.601c-14.472-17.934-33.23-31.833-52.386-39.814V42.381
	C412.226,19.014,393.796,0,370.43,0h-0.582c-23.366,0-42.956,19.014-42.956,42.381v18.606c-27.864,6.304-53.56,22.128-73.318,46.248
	c-21.142-23.679-45.105-38.776-71.228-45.213V42.381C182.347,19.014,163.917,0,140.551,0h-0.582
	c-23.366,0-42.956,19.014-42.956,42.381v27.262c-17.415,8.091-36.02,21.663-50.051,39.043
	c-17.814,22.065-29.182,49.246-33.155,78.612c-6.393,47.258,6.976,98.768,38.533,148.963
	c36.351,57.823,96.716,114.513,179.346,168.494c7.255,4.74,15.693,7.245,24.369,7.245c8.674,0,17.105-2.504,24.36-7.245
	c82.629-53.983,142.96-110.676,179.311-168.501C491.277,286.058,504.58,234.546,498.189,187.289z M97.605,101.319
	c0.246,23.157,19.151,41.484,42.364,41.484h0.582c23.366,0,41.796-19.007,41.796-42.374v-9.429
	c24.381,7.788,43.289,24.484,58.813,44.518c3.373,4.352,8.506,6.532,13.457,6.532c5.176,0,10.096-2.381,13.307-7.156
	c14.529-21.591,34.588-37.996,58.969-45.166v10.7c0,23.368,19.59,42.374,42.956,42.374h0.582c23.366,0,41.796-19.007,41.796-42.374
	v-0.578c24.381,13.478,45.466,39.47,54.776,74.3H45.144C54.226,139.321,74.83,115.046,97.605,101.319z M154.483,100.426
	c0,8.016-6.498,14.514-14.512,14.514h-0.582c-8.014,0-14.512-6.498-14.512-14.514V42.378c0-8.016,6.498-14.514,14.512-14.514h0.582
	c8.014,0,14.512,6.498,14.512,14.514V100.426z M384.362,100.426c0,8.016-6.498,14.514-14.512,14.514h-0.582
	c-8.014,0-14.512-6.498-14.512-14.514V42.378c0-8.016,6.498-14.514,14.512-14.514h0.582c8.014,0,14.512,6.498,14.512,14.514V100.426
	z M256.072,488.176C84.33,378.602,35.778,275.158,40.56,202.015h431.02C476.355,275.158,427.804,378.602,256.072,488.176z"/>
<g>
	<path style="fill:#FFFFFF;" d="M471.58,202.015H40.56c-4.782,73.143,43.769,176.587,215.512,286.161
		C427.804,378.602,476.355,275.158,471.58,202.015z M200.633,399.502c-7.523,0-14.803-3.192-14.803-9.348V268.403l-6.673,7.295
		c-1.823,1.595-3.567,2.053-5.162,2.053c-5.7,0-9.422-5.928-9.422-11.858c0-4.103,2.132-8.436,5.78-10.715l26.941-20.518
		c1.597-1.369,3.03-2.281,5.536-2.281c6.156,0,12.605,3.648,12.605,9.577v148.199C215.436,396.31,207.928,399.502,200.633,399.502z
		 M334.583,363.975h-11.174v26.178c0,6.156-7.279,9.348-14.803,9.348c-7.295,0-14.803-3.192-14.803-9.348v-26.178h-54.297
		c-5.7,0-10.033-4.239-10.033-10.85c0-1.823,0.456-4.058,1.595-6.109l54.036-106.338c2.736-5.7,7.751-7.798,12.541-7.798
		c5.244,0,14.82,4.538,14.82,11.376c0,1.142-0.456,2.722-1.141,4.091l-43.775,87.765h26.253v-24.388
		c0-6.612,7.508-9.348,14.803-9.348c7.523,0,14.803,2.736,14.803,9.348v24.388h11.174c6.155,0,9.347,6.978,9.347,14.045
		C343.929,356.997,339.37,363.975,334.583,363.975z"/>
	<path style="fill:#FFFFFF;" d="M384.362,42.378c0-8.016-6.498-14.514-14.512-14.514h-0.582c-8.014,0-14.512,6.498-14.512,14.514
		v58.048c0,8.016,6.498,14.514,14.512,14.514h0.582c8.014,0,14.512-6.498,14.512-14.514V42.378z"/>
	<path style="fill:#FFFFFF;" d="M154.483,42.378c0-8.016-6.498-14.514-14.512-14.514h-0.582c-8.014,0-14.512,6.498-14.512,14.514
		v58.048c0,8.016,6.498,14.514,14.512,14.514h0.582c8.014,0,14.512-6.498,14.512-14.514V42.378z"/>
</g>
<path d="M215.436,241.956c0-5.928-6.43-9.577-12.586-9.577c-2.506,0-4.239,0.911-5.836,2.281L170.27,255.18
	c-3.648,2.281-5.622,6.613-5.622,10.716c0,5.928,3.917,11.858,9.617,11.858c1.595,0,3.048-0.458,4.871-2.053l6.696-7.295v121.751
	c0,6.156,7.28,9.348,14.803,9.348c7.295,0,14.803-3.192,14.803-9.348V241.956H215.436z"/>
<path d="M334.583,336.111h-11.174v-24.388c0-6.612-7.279-9.348-14.803-9.348c-7.295,0-14.803,2.736-14.803,9.348v24.388H267.55
	l43.776-87.776c0.686-1.367,1.141-2.847,1.141-3.986c0-6.841-9.577-11.457-14.82-11.457c-4.789,0-9.805,2.025-12.541,7.724
	l-54.036,106.236c-1.139,2.051-1.595,4.46-1.595,6.282c0,6.612,4.331,10.844,10.033,10.844h54.297v26.178
	c0,6.156,7.508,9.348,14.803,9.348c7.523,0,14.803-3.192,14.803-9.348v-26.18h11.174c4.787,0,9.347-6.978,9.347-13.819
	C343.929,343.089,340.737,336.111,334.583,336.111z"/>
</svg>